<svg id="Layer_1" data-name="Layer 1" xmlns="http://www.w3.org/2000/svg" viewBox="0 0 128 144"><defs><style>.cls-1{fill:#5153a3;}.cls-2{fill:none;stroke-width:4px;}.cls-2,.cls-3{stroke:#fff;stroke-miterlimit:10;}.cls-3{fill:#e6e7e8;stroke-linecap:square;stroke-width:6px;}.cls-4{fill:#fff;}</style></defs><title>Artboard 1</title><rect class="cls-1" x="-0.16" y="0.16" width="128" height="144"/><circle class="cls-2" cx="64" cy="72" r="45"/><line class="cls-3" x1="64" y1="58.5" x2="64" y2="106.5"/><line class="cls-3" x1="51.66" y1="70.9" x2="76.01" y2="70.9"/><path class="cls-4" d="M38,52.49l-.78-.89a33.65,33.65,0,0,1,3.64-2.89L43,51.77a9.05,9.05,0,0,1-.88,2.11,6.62,6.62,0,0,1-1.33,1.62,6.31,6.31,0,0,1-2.27,1.33,5.22,5.22,0,0,1-2.56.17,5.4,5.4,0,0,1-2.58-1.27,4.84,4.84,0,0,1-1.63-2.48,4.5,4.5,0,0,1,.17-2.82,7,7,0,0,1,1.93-2.64,6.51,6.51,0,0,1,2-1.28,3.9,3.9,0,0,1,1.88-.25,3.55,3.55,0,0,1,1.74.82c-.37.42-.55.64-.9,1.07a3,3,0,0,0-1.33-.58,2.79,2.79,0,0,0-1.31.21,4.63,4.63,0,0,0-1.39.88,4.93,4.93,0,0,0-1.37,1.88,3.26,3.26,0,0,0-.1,2,4.75,4.75,0,0,0,4.2,3.2,4.17,4.17,0,0,0,2.65-1.15,5.14,5.14,0,0,0,1-1.27A4.77,4.77,0,0,0,41.51,52L40.39,50.5C39.39,51.25,38.91,51.65,38,52.49Z"/><path class="cls-4" d="M42.35,48a4.7,4.7,0,0,1-.75-4.17,5.39,5.39,0,0,1,2.94-3.11,5.75,5.75,0,0,1,2.87-.58,4.3,4.3,0,0,1,2.49,1,5.11,5.11,0,0,1,1.55,2.43,5.7,5.7,0,0,1,0,3.83A4.61,4.61,0,0,1,49,50.08a4.66,4.66,0,0,1-3.74.19A5.52,5.52,0,0,1,42.35,48Zm1.25-.75a4.13,4.13,0,0,0,2.32,2,3.39,3.39,0,0,0,2.56-.16,3.33,3.33,0,0,0,1.75-1.89A4.45,4.45,0,0,0,50.08,44a4.56,4.56,0,0,0-1.33-2,3,3,0,0,0-1.7-.66,3.92,3.92,0,0,0-2,.38A3.76,3.76,0,0,0,43,43.93,4,4,0,0,0,43.6,47.23Z"/><path class="cls-4" d="M53.18,44.85l1.18-.44a2.74,2.74,0,0,0,.75,1.14,2.54,2.54,0,0,0,1.11.5,3.72,3.72,0,0,0,1.43,0,3,3,0,0,0,1.65-.73,1.51,1.51,0,0,0,.48-1.3,1.28,1.28,0,0,0-.32-.74,1.64,1.64,0,0,0-.79-.45,11.1,11.1,0,0,0-2.19-.25,11.57,11.57,0,0,1-2.21-.23,2.94,2.94,0,0,1-1.19-.61,2.17,2.17,0,0,1-.68-1.07,2.26,2.26,0,0,1,.53-2.2,4.71,4.71,0,0,1,2.78-1.4,5.77,5.77,0,0,1,2.32,0,3.11,3.11,0,0,1,1.61.86,2.64,2.64,0,0,1,.7,1.53L59,39.72a1.87,1.87,0,0,0-1-1.34,3.24,3.24,0,0,0-2-.15,3.5,3.5,0,0,0-1.84.8,1.2,1.2,0,0,0-.4,1.19,1.11,1.11,0,0,0,.68.81,7.94,7.94,0,0,0,2.19.24,11.43,11.43,0,0,1,2.27.24,3.09,3.09,0,0,1,1.54.85,2.34,2.34,0,0,1,.6,1.45,2.86,2.86,0,0,1-.34,1.6,3.19,3.19,0,0,1-1.12,1.2,4.87,4.87,0,0,1-1.78.65A4.41,4.41,0,0,1,54.92,47,3.41,3.41,0,0,1,53.18,44.85Z"/><path class="cls-4" d="M62.89,46.55l-.33-10A38.25,38.25,0,0,1,67,36.6a8.18,8.18,0,0,1,2.27.39,2.83,2.83,0,0,1,1.46,1.16A2.55,2.55,0,0,1,71,40a3,3,0,0,1-1.23,2,4.67,4.67,0,0,1-3.06.54c-1-.07-1.56-.09-2.61-.09v4.07Zm1.21-5.28c1.09,0,1.63,0,2.71.09a3.39,3.39,0,0,0,1.92-.28,1.85,1.85,0,0,0,.59-2.34,1.55,1.55,0,0,0-.69-.66A5,5,0,0,0,67,37.79c-1.17-.08-1.75-.1-2.92-.1Z"/><path class="cls-4" d="M71.39,47.29l2.07-9.81A37.84,37.84,0,0,1,81.61,40l-.46,1.09A36.8,36.8,0,0,0,74.7,39L74,42a34.26,34.26,0,0,1,5.64,1.82l-.45,1.1a33.28,33.28,0,0,0-5.48-1.77l-.82,3.31a30.44,30.44,0,0,1,5.55,1.84l-.46,1.09A29.49,29.49,0,0,0,71.39,47.29Z"/><path class="cls-4" d="M79.42,50l4.34-9c.57.27.85.42,1.41.71l-4.1,7.83A30.2,30.2,0,0,1,85.16,52l-.68,1A29.23,29.23,0,0,0,79.42,50Z"/><path class="cls-4" d="M87.31,51.06c.44.28.66.42,1.1.72a2.34,2.34,0,0,0-.15,2.53,4.19,4.19,0,0,0,.91,1.21,3.48,3.48,0,0,0,1.65,1,1.48,1.48,0,0,0,1.37-.34,1.21,1.21,0,0,0,.4-.71,1.77,1.77,0,0,0-.14-.94,12.39,12.39,0,0,0-1.21-2,12.82,12.82,0,0,1-1.22-2,3,3,0,0,1-.26-1.34A2.1,2.1,0,0,1,90.2,48a2.23,2.23,0,0,1,2.12-.86,5.1,5.1,0,0,1,2.91,1.51,6.51,6.51,0,0,1,1.49,2,3.39,3.39,0,0,1,.34,1.9A2.51,2.51,0,0,1,96.26,54c-.43-.44-.65-.65-1.09-1.07a1.84,1.84,0,0,0,.46-1.62,3.65,3.65,0,0,0-1.17-1.81,3.83,3.83,0,0,0-1.82-1.08,1.19,1.19,0,0,0-1.22.37,1.09,1.09,0,0,0-.22,1,8.79,8.79,0,0,0,1.21,2,12.82,12.82,0,0,1,1.26,2.09,3.37,3.37,0,0,1,.3,1.83,2.21,2.21,0,0,1-.79,1.37,2.7,2.7,0,0,1-1.52.63,3.45,3.45,0,0,1-1.71-.28,5.7,5.7,0,0,1-1.67-1.15,4.84,4.84,0,0,1-1.57-2.59A3.35,3.35,0,0,1,87.31,51.06Z"/></svg>